<svg xmlns="http://www.w3.org/2000/svg" viewBox="0 0 128 128" role="img" aria-labelledby="title desc">
  <title id="title">Claw Space logo</title>
  <desc id="desc">A compact geometric claw mark inside a rounded square.</desc>
  <rect width="128" height="128" rx="28" fill="#111827"/>
  <path d="M31 89c15-35 30-54 45-57-7 13-10 25-9 36 7-15 17-27 30-34-5 17-6 33-4 48 4-7 9-13 15-18-2 15-9 27-22 36-19 4-37 1-55-11Z" fill="#f8fafc"/>
  <path d="M32 90c12 7 24 10 36 10 10 0 20-2 30-7" fill="none" stroke="#38bdf8" stroke-width="7" stroke-linecap="round"/>
</svg>
